<?xml version="1.0" standalone="no"?>
<svg viewBox="0 0 200 200" xmlns="http://www.w3.org/2000/svg">
  <path fill="#0563BB" d="M47.4,-71.6C60.9,-65.1,71,-51.1,77.5,-35.7C84,-20.4,86.8,-3.8,84.2,11.9C81.5,27.5,73.5,42.1,62.5,53.5C51.6,64.9,37.8,73.2,22.4,78.9C7.1,84.6,-9.8,87.6,-26.1,84.7C-42.5,81.9,-58.3,73.1,-66.6,59.8C-74.9,46.5,-75.7,28.7,-75,12.7C-74.3,-3.3,-72.2,-17.7,-67.6,-32.2C-63.1,-46.8,-56.1,-61.6,-44.4,-68.9C-32.7,-76.3,-16.4,-76.2,0.3,-76.6C16.9,-77.1,33.9,-78.1,47.4,-71.6Z" transform="translate(100 100)" />
</svg>
